# Blender v2.90.1 OBJ File: 'Coin.blend'
# www.blender.org
mtllib CoinPlate.mtl
o Cylinder
v -0.117473 0.016049 -0.999757
v 0.081805 0.017365 -1.000000
v -0.114086 -0.179012 -0.980542
v 0.085193 -0.177696 -0.980785
v -0.110828 -0.366577 -0.923637
v 0.088451 -0.365260 -0.923880
v -0.107826 -0.539438 -0.831227
v 0.091453 -0.538121 -0.831470
v -0.105194 -0.690951 -0.706864
v 0.094084 -0.689635 -0.707107
v -0.103035 -0.815295 -0.555327
v 0.096244 -0.813979 -0.555570
v -0.101430 -0.907691 -0.382440
v 0.097849 -0.906375 -0.382683
v -0.100442 -0.964588 -0.194847
v 0.098837 -0.963272 -0.195090
v -0.100108 -0.983800 0.000243
v 0.099171 -0.982484 -0.000000
v -0.100442 -0.964588 0.195333
v 0.098837 -0.963272 0.195090
v -0.101430 -0.907691 0.382926
v 0.097849 -0.906375 0.382683
v -0.103035 -0.815295 0.555813
v 0.096244 -0.813979 0.555570
v -0.105194 -0.690951 0.707350
v 0.094084 -0.689635 0.707107
v -0.107826 -0.539437 0.831713
v 0.091453 -0.538121 0.831470
v -0.110828 -0.366577 0.924123
v 0.088451 -0.365260 0.923880
v -0.114086 -0.179012 0.981028
v 0.085193 -0.177695 0.980785
v -0.117473 0.016049 1.000243
v 0.081805 0.017366 1.000000
v -0.120861 0.211110 0.981028
v 0.078417 0.212427 0.980785
v -0.124119 0.398675 0.924122
v 0.075160 0.399992 0.923879
v -0.127121 0.571536 0.831712
v 0.072158 0.572852 0.831469
v -0.129753 0.723050 0.707349
v 0.069526 0.724366 0.707106
v -0.131912 0.847394 0.555813
v 0.067366 0.848710 0.555570
v -0.133517 0.939789 0.382926
v 0.065762 0.941106 0.382683
v -0.134505 0.996686 0.195332
v 0.064774 0.998003 0.195089
v -0.134839 1.015898 0.000242
v 0.064440 1.017215 -0.000001
v -0.134505 0.996686 -0.194848
v 0.064774 0.998003 -0.195091
v -0.133517 0.939789 -0.382442
v 0.065762 0.941105 -0.382684
v -0.131912 0.847392 -0.555328
v 0.067367 0.848709 -0.555571
v -0.129753 0.723048 -0.706865
v 0.069526 0.724365 -0.707108
v -0.127121 0.571534 -0.831227
v 0.072158 0.572851 -0.831470
v -0.124119 0.398673 -0.923637
v 0.075160 0.399990 -0.923880
v -0.120861 0.211108 -0.980543
v 0.078417 0.212425 -0.980786
vt 0.739057 0.504151
vt 0.734406 0.457206
vt 0.738999 0.503837
vt 0.734464 0.457521
vt 0.720802 0.412367
vt 0.720860 0.412682
vt 0.698711 0.371044
vt 0.698769 0.371358
vt 0.668981 0.334823
vt 0.669039 0.335138
vt 0.632755 0.305098
vt 0.632813 0.305412
vt 0.591425 0.283010
vt 0.591483 0.283325
vt 0.546580 0.269408
vt 0.500000 0.265130
vt 0.499942 0.264815
vt 0.453362 0.269723
vt 0.453304 0.269408
vt 0.408517 0.283325
vt 0.408459 0.283010
vt 0.367187 0.305412
vt 0.367129 0.305098
vt 0.330961 0.335138
vt 0.330903 0.334823
vt 0.301231 0.371358
vt 0.301173 0.371044
vt 0.279140 0.412682
vt 0.279082 0.412367
vt 0.265536 0.457521
vt 0.265478 0.457206
vt 0.260943 0.504151
vt 0.260885 0.503837
vt 0.265536 0.550782
vt 0.265478 0.550467
vt 0.279140 0.595621
vt 0.279082 0.595306
vt 0.301231 0.636945
vt 0.301173 0.636630
vt 0.330961 0.673165
vt 0.330903 0.672850
vt 0.367187 0.702890
vt 0.367129 0.702576
vt 0.408517 0.724978
vt 0.408459 0.724663
vt 0.453362 0.738580
vt 0.453304 0.738265
vt 0.499942 0.742858
vt 0.500000 0.743173
vt 0.546580 0.738265
vt 0.546638 0.738580
vt 0.591425 0.724663
vt 0.591483 0.724978
vt 0.632755 0.702575
vt 0.632813 0.702890
vt 0.668981 0.672850
vt 0.669039 0.673165
vt 0.698711 0.636629
vt 0.698769 0.636944
vt 0.720802 0.595306
vt 0.720860 0.595620
vt 0.734406 0.550467
vt 0.734464 0.550782
vt 0.546638 0.269723
vn -0.0012 -0.0007 -1.0000
vn 0.0001 -0.1945 -0.9809
vn -0.0012 0.0006 -1.0000
vn 0.0001 -0.1957 -0.9807
vn 0.0014 -0.3822 -0.9241
vn 0.0014 -0.3833 -0.9236
vn 0.0027 -0.5552 -0.8317
vn 0.0027 -0.5560 -0.8312
vn 0.0038 -0.7068 -0.7074
vn 0.0038 -0.7074 -0.7068
vn 0.0048 -0.8313 -0.5558
vn 0.0048 -0.8316 -0.5553
vn 0.0056 -0.9238 -0.3828
vn 0.0056 -0.9239 -0.3825
vn 0.0060 -0.9569 -0.2903
vn 0.0065 -0.9952 -0.0980
vn 0.0066 -1.0000 -0.0001
vn 0.0066 -1.0000 0.0001
vn 0.0067 -0.9808 0.1949
vn 0.0067 -0.9807 0.1953
vn 0.0066 -0.9240 0.3824
vn 0.0066 -0.9237 0.3830
vn 0.0062 -0.8317 0.5552
vn 0.0062 -0.8312 0.5559
vn 0.0055 -0.7075 0.7067
vn 0.0055 -0.7067 0.7075
vn 0.0047 -0.5561 0.8311
vn 0.0047 -0.5551 0.8318
vn 0.0037 -0.3833 0.9236
vn 0.0037 -0.3821 0.9241
vn 0.0025 -0.1957 0.9807
vn 0.0025 -0.1944 0.9809
vn 0.0012 -0.0006 1.0000
vn 0.0012 0.0007 1.0000
vn -0.0001 0.1945 0.9809
vn -0.0001 0.1957 0.9807
vn -0.0014 0.3822 0.9241
vn -0.0014 0.3833 0.9236
vn -0.0027 0.5552 0.8317
vn -0.0027 0.5560 0.8312
vn -0.0038 0.7068 0.7074
vn -0.0038 0.7074 0.7068
vn -0.0048 0.8313 0.5558
vn -0.0048 0.8316 0.5553
vn -0.0056 0.9238 0.3828
vn -0.0056 0.9239 0.3825
vn -0.0062 0.9808 0.1951
vn -0.0062 0.9808 0.1950
vn -0.0066 1.0000 0.0001
vn -0.0066 1.0000 -0.0001
vn -0.0067 0.9808 -0.1949
vn -0.0067 0.9807 -0.1953
vn -0.0066 0.9240 -0.3824
vn -0.0066 0.9237 -0.3830
vn -0.0062 0.8317 -0.5552
vn -0.0062 0.8312 -0.5559
vn -0.0055 0.7075 -0.7067
vn -0.0055 0.7067 -0.7075
vn -0.0047 0.5561 -0.8311
vn -0.0047 0.5551 -0.8318
vn -0.0037 0.3833 -0.9236
vn 0.9998 0.0174 0.0000
vn -0.0037 0.3821 -0.9241
vn -0.0025 0.1957 -0.9807
vn -0.0025 0.1944 -0.9809
vn -0.9998 -0.0174 -0.0000
usemtl Material.001
s 1
f 2/1/1 3/2/2 1/3/3
f 4/4/4 5/5/5 3/2/2
f 6/6/6 7/7/7 5/5/5
f 8/8/8 9/9/9 7/7/7
f 10/10/10 11/11/11 9/9/9
f 12/12/12 13/13/13 11/11/11
f 14/14/14 15/15/15 13/13/13
f 15/15/16 18/16/17 17/17/18
f 17/17/18 20/18/19 19/19/20
f 19/19/20 22/20/21 21/21/22
f 21/21/22 24/22/23 23/23/24
f 23/23/24 26/24/25 25/25/26
f 25/25/26 28/26/27 27/27/28
f 27/27/28 30/28/29 29/29/30
f 29/29/30 32/30/31 31/31/32
f 31/31/32 34/32/33 33/33/34
f 33/33/34 36/34/35 35/35/36
f 35/35/36 38/36/37 37/37/38
f 37/37/38 40/38/39 39/39/40
f 39/39/40 42/40/41 41/41/42
f 41/41/42 44/42/43 43/43/44
f 43/43/44 46/44/45 45/45/46
f 45/45/46 48/46/47 47/47/48
f 48/46/47 49/48/49 47/47/48
f 50/49/50 51/50/51 49/48/49
f 52/51/52 53/52/53 51/50/51
f 54/53/54 55/54/55 53/52/53
f 56/55/56 57/56/57 55/54/55
f 58/57/58 59/58/59 57/56/57
f 60/59/60 61/60/61 59/58/59
f 54/53/62 38/36/62 22/20/62
f 62/61/63 63/62/64 61/60/61
f 64/63/65 1/3/3 63/62/64
f 15/15/66 31/31/66 47/47/66
f 2/1/1 4/4/4 3/2/2
f 4/4/4 6/6/6 5/5/5
f 6/6/6 8/8/8 7/7/7
f 8/8/8 10/10/10 9/9/9
f 10/10/10 12/12/12 11/11/11
f 12/12/12 14/14/14 13/13/13
f 14/14/14 16/64/15 15/15/15
f 15/15/16 16/64/16 18/16/17
f 17/17/18 18/16/17 20/18/19
f 19/19/20 20/18/19 22/20/21
f 21/21/22 22/20/21 24/22/23
f 23/23/24 24/22/23 26/24/25
f 25/25/26 26/24/25 28/26/27
f 27/27/28 28/26/27 30/28/29
f 29/29/30 30/28/29 32/30/31
f 31/31/32 32/30/31 34/32/33
f 33/33/34 34/32/33 36/34/35
f 35/35/36 36/34/35 38/36/37
f 37/37/38 38/36/37 40/38/39
f 39/39/40 40/38/39 42/40/41
f 41/41/42 42/40/41 44/42/43
f 43/43/44 44/42/43 46/44/45
f 45/45/46 46/44/45 48/46/47
f 48/46/47 50/49/50 49/48/49
f 50/49/50 52/51/52 51/50/51
f 52/51/52 54/53/54 53/52/53
f 54/53/54 56/55/56 55/54/55
f 56/55/56 58/57/58 57/56/57
f 58/57/58 60/59/60 59/58/59
f 60/59/60 62/61/63 61/60/61
f 6/6/62 4/4/62 2/1/62
f 2/1/62 64/63/62 6/6/62
f 64/63/62 62/61/62 6/6/62
f 62/61/62 60/59/62 58/57/62
f 58/57/62 56/55/62 54/53/62
f 54/53/62 52/51/62 50/49/62
f 50/49/62 48/46/62 54/53/62
f 48/46/62 46/44/62 54/53/62
f 46/44/62 44/42/62 38/36/62
f 44/42/62 42/40/62 38/36/62
f 42/40/62 40/38/62 38/36/62
f 38/36/62 36/34/62 34/32/62
f 34/32/62 32/30/62 30/28/62
f 30/28/62 28/26/62 26/24/62
f 26/24/62 24/22/62 22/20/62
f 22/20/62 20/18/62 18/16/62
f 18/16/62 16/64/62 22/20/62
f 16/64/62 14/14/62 22/20/62
f 14/14/62 12/12/62 10/10/62
f 10/10/62 8/8/62 6/6/62
f 62/61/62 58/57/62 6/6/62
f 58/57/62 54/53/62 6/6/62
f 38/36/62 34/32/62 22/20/62
f 34/32/62 30/28/62 22/20/62
f 30/28/62 26/24/62 22/20/62
f 14/14/62 10/10/62 22/20/62
f 10/10/62 6/6/62 22/20/62
f 54/53/62 46/44/62 38/36/62
f 6/6/62 54/53/62 22/20/62
f 62/61/63 64/63/65 63/62/64
f 64/63/65 2/1/1 1/3/3
f 63/62/66 1/3/66 3/2/66
f 3/2/66 5/5/66 7/7/66
f 7/7/66 9/9/66 15/15/66
f 9/9/66 11/11/66 15/15/66
f 11/11/66 13/13/66 15/15/66
f 15/15/66 17/17/66 19/19/66
f 19/19/66 21/21/66 15/15/66
f 21/21/66 23/23/66 15/15/66
f 23/23/66 25/25/66 27/27/66
f 27/27/66 29/29/66 23/23/66
f 29/29/66 31/31/66 23/23/66
f 31/31/66 33/33/66 39/39/66
f 33/33/66 35/35/66 39/39/66
f 35/35/66 37/37/66 39/39/66
f 39/39/66 41/41/66 43/43/66
f 43/43/66 45/45/66 39/39/66
f 45/45/66 47/47/66 39/39/66
f 47/47/66 49/48/66 51/50/66
f 51/50/66 53/52/66 47/47/66
f 53/52/66 55/54/66 47/47/66
f 55/54/66 57/56/66 59/58/66
f 59/58/66 61/60/66 63/62/66
f 63/62/66 3/2/66 7/7/66
f 55/54/66 59/58/66 63/62/66
f 63/62/66 7/7/66 15/15/66
f 15/15/66 23/23/66 31/31/66
f 31/31/66 39/39/66 47/47/66
f 47/47/66 55/54/66 63/62/66
f 63/62/66 15/15/66 47/47/66
