# Blender v2.90.1 OBJ File: 'Coin.blend'
# www.blender.org
mtllib CoinTest.mtl
o Cube_Cube.001
v 0.136137 -0.732157 0.000000
v 0.136137 0.732157 0.000000
v -0.158020 -0.732157 0.000000
v -0.158020 0.732157 0.000000
v 0.136137 0.000000 0.588979
v -0.158020 0.000000 0.588979
v 0.136137 0.000000 -0.588979
v -0.158020 0.000000 -0.588979
v -0.117473 0.016049 -0.999757
v 0.081805 0.017365 -1.000000
v -0.114085 -0.179012 -0.980542
v 0.085193 -0.177696 -0.980785
v -0.110828 -0.366577 -0.923637
v 0.088451 -0.365260 -0.923880
v -0.107826 -0.539437 -0.831227
v 0.091453 -0.538121 -0.831470
v -0.105194 -0.690951 -0.706864
v 0.094085 -0.689635 -0.707107
v -0.103035 -0.815295 -0.555327
v 0.096244 -0.813979 -0.555570
v -0.101430 -0.907691 -0.382440
v 0.097849 -0.906375 -0.382683
v -0.100442 -0.964588 -0.194847
v 0.098837 -0.963272 -0.195090
v -0.100108 -0.983800 0.000243
v 0.099171 -0.982484 -0.000000
v -0.100442 -0.964588 0.195333
v 0.098837 -0.963272 0.195090
v -0.101430 -0.907691 0.382926
v 0.097849 -0.906375 0.382683
v -0.103035 -0.815295 0.555813
v 0.096244 -0.813979 0.555570
v -0.105194 -0.690951 0.707350
v 0.094085 -0.689635 0.707107
v -0.107826 -0.539437 0.831713
v 0.091453 -0.538121 0.831470
v -0.110828 -0.366577 0.924123
v 0.088451 -0.365260 0.923880
v -0.114085 -0.179012 0.981028
v 0.085193 -0.177695 0.980785
v -0.117473 0.016049 1.000243
v 0.081805 0.017366 1.000000
v -0.120861 0.211110 0.981028
v 0.078418 0.212427 0.980785
v -0.124119 0.398675 0.924122
v 0.075160 0.399992 0.923879
v -0.127121 0.571536 0.831712
v 0.072158 0.572852 0.831469
v -0.129752 0.723050 0.707349
v 0.069526 0.724366 0.707106
v -0.131912 0.847394 0.555813
v 0.067367 0.848710 0.555570
v -0.133517 0.939789 0.382926
v 0.065762 0.941106 0.382683
v -0.134505 0.996686 0.195332
v 0.064774 0.998003 0.195089
v -0.134839 1.015898 0.000242
v 0.064440 1.017215 -0.000001
v -0.134505 0.996686 -0.194848
v 0.064774 0.998003 -0.195091
v -0.133517 0.939789 -0.382442
v 0.065762 0.941105 -0.382684
v -0.131912 0.847392 -0.555328
v 0.067367 0.848709 -0.555571
v -0.129752 0.723048 -0.706865
v 0.069526 0.724365 -0.707108
v -0.127121 0.571534 -0.831227
v 0.072158 0.572851 -0.831470
v -0.124119 0.398673 -0.923637
v 0.075160 0.399990 -0.923880
v -0.120861 0.211108 -0.980543
v 0.078418 0.212425 -0.980786
vt 0.000000 0.500000
vt 0.500000 0.000000
vt 1.000000 0.500000
vt 0.000000 0.500000
vt 1.000000 0.500000
vt 1.000000 1.000000
vt 0.500000 0.000000
vt 0.000000 0.500000
vt 1.000000 0.500000
vt 0.000000 1.000000
vt 0.739057 0.504151
vt 0.734406 0.457206
vt 0.738999 0.503837
vt 0.734464 0.457521
vt 0.720802 0.412367
vt 0.720860 0.412682
vt 0.698711 0.371044
vt 0.698769 0.371358
vt 0.668981 0.334823
vt 0.669039 0.335138
vt 0.632755 0.305098
vt 0.632813 0.305412
vt 0.591425 0.283010
vt 0.591483 0.283325
vt 0.546580 0.269408
vt 0.546638 0.269723
vt 0.499942 0.264815
vt 0.453362 0.269723
vt 0.453304 0.269408
vt 0.408517 0.283325
vt 0.408459 0.283010
vt 0.367187 0.305412
vt 0.367129 0.305098
vt 0.330961 0.335138
vt 0.330903 0.334823
vt 0.301231 0.371358
vt 0.301173 0.371044
vt 0.279140 0.412682
vt 0.279082 0.412367
vt 0.265536 0.457521
vt 0.265478 0.457206
vt 0.260943 0.504151
vt 0.260885 0.503837
vt 0.265536 0.550782
vt 0.265478 0.550467
vt 0.279140 0.595621
vt 0.279082 0.595306
vt 0.301231 0.636945
vt 0.301173 0.636630
vt 0.330961 0.673165
vt 0.330903 0.672850
vt 0.367187 0.702890
vt 0.367129 0.702576
vt 0.408517 0.724978
vt 0.408459 0.724663
vt 0.453362 0.738580
vt 0.453304 0.738265
vt 0.500000 0.743173
vt 0.499942 0.742858
vt 0.546580 0.738265
vt 0.546638 0.738580
vt 0.591425 0.724663
vt 0.591483 0.724978
vt 0.632755 0.702575
vt 0.632813 0.702890
vt 0.668981 0.672850
vt 0.669039 0.673165
vt 0.698711 0.636629
vt 0.698769 0.636944
vt 0.720802 0.595306
vt 0.720860 0.595620
vt 0.734406 0.550467
vt 0.734464 0.550782
vt 0.500000 1.000000
vt 1.000000 0.000000
vt 0.000000 0.000000
vt 0.500000 1.000000
vt 0.500000 0.265130
vn 0.5896 0.0000 0.8077
vn 0.5668 -0.8238 0.0000
vn 0.5896 0.0000 -0.8077
vn -0.5896 0.0000 -0.8077
vn -0.5668 0.8238 0.0000
vn -0.5668 -0.8238 0.0000
vn -0.5896 0.0000 0.8077
vn 0.5668 0.8238 0.0000
vn 0.6851 0.0114 -0.7283
vn -0.6843 -0.1532 -0.7129
vn -0.6860 -0.0114 -0.7275
vn 0.6868 -0.1308 -0.7149
vn -0.6827 -0.2893 -0.6710
vn 0.6885 -0.2677 -0.6740
vn -0.6811 -0.4146 -0.6034
vn 0.6901 -0.3941 -0.6070
vn -0.6797 -0.5243 -0.5128
vn 0.6915 -0.5050 -0.5165
vn -0.6786 -0.6142 -0.4027
vn 0.6926 -0.5961 -0.4060
vn -0.6777 -0.6810 -0.2773
vn 0.6935 -0.6638 -0.2798
vn -0.6771 -0.7221 -0.1413
vn 0.6941 -0.7056 -0.1427
vn -0.6769 -0.7360 0.0000
vn 0.6943 -0.7054 0.1425
vn -0.6770 -0.7223 0.1415
vn 0.6939 -0.6636 0.2795
vn -0.6774 -0.6812 0.2775
vn 0.6931 -0.5958 0.4057
vn -0.6781 -0.6146 0.4031
vn 0.6921 -0.5046 0.5160
vn -0.6791 -0.5246 0.5133
vn 0.6908 -0.3937 0.6064
vn -0.6804 -0.4150 0.6040
vn 0.6894 -0.2674 0.6732
vn -0.6818 -0.2896 0.6717
vn 0.6877 -0.1306 0.7141
vn -0.6834 -0.1533 0.7137
vn 0.6860 0.0114 0.7275
vn -0.6851 -0.0114 0.7283
vn 0.6843 0.1532 0.7129
vn -0.6868 0.1308 0.7149
vn 0.6827 0.2893 0.6710
vn -0.6885 0.2677 0.6740
vn 0.6811 0.4146 0.6034
vn -0.6901 0.3941 0.6070
vn 0.6797 0.5243 0.5128
vn -0.6915 0.5050 0.5165
vn 0.6786 0.6142 0.4027
vn -0.6926 0.5961 0.4060
vn 0.6777 0.6810 0.2773
vn -0.6935 0.6638 0.2798
vn 0.6771 0.7221 0.1413
vn -0.6941 0.7056 0.1427
vn 0.6769 0.7360 -0.0000
vn -0.6944 0.7196 0.0000
vn -0.6943 0.7054 -0.1425
vn 0.6770 0.7223 -0.1415
vn -0.6939 0.6636 -0.2795
vn 0.6774 0.6812 -0.2775
vn -0.6931 0.5958 -0.4057
vn 0.6781 0.6146 -0.4031
vn -0.6921 0.5046 -0.5160
vn 0.6791 0.5246 -0.5133
vn -0.6908 0.3937 -0.6064
vn 0.6804 0.4150 -0.6040
vn -0.6894 0.2674 -0.6732
vn 0.6818 0.2896 -0.6717
vn -0.6877 0.1306 -0.7141
vn 0.6834 0.1533 -0.7137
vn 0.6944 -0.7196 -0.0000
usemtl Material
s 1
f 5/1/1 1/2/2 7/3/3
f 7/4/3 8/5/4 4/6/5
f 8/5/4 3/7/6 6/8/7
f 6/9/7 5/1/1 2/10/8
f 10/11/9 11/12/10 9/13/11
f 12/14/12 13/15/13 11/12/10
f 14/16/14 15/17/15 13/15/13
f 16/18/16 17/19/17 15/17/15
f 18/20/18 19/21/19 17/19/17
f 20/22/20 21/23/21 19/21/19
f 22/24/22 23/25/23 21/23/21
f 24/26/24 25/27/25 23/25/23
f 25/27/25 28/28/26 27/29/27
f 27/29/27 30/30/28 29/31/29
f 29/31/29 32/32/30 31/33/31
f 31/33/31 34/34/32 33/35/33
f 33/35/33 36/36/34 35/37/35
f 35/37/35 38/38/36 37/39/37
f 37/39/37 40/40/38 39/41/39
f 39/41/39 42/42/40 41/43/41
f 41/43/41 44/44/42 43/45/43
f 43/45/43 46/46/44 45/47/45
f 45/47/45 48/48/46 47/49/47
f 47/49/47 50/50/48 49/51/49
f 49/51/49 52/52/50 51/53/51
f 51/53/51 54/54/52 53/55/53
f 53/55/53 56/56/54 55/57/55
f 55/57/55 58/58/56 57/59/57
f 58/58/56 59/60/58 57/59/57
f 60/61/59 61/62/60 59/60/58
f 62/63/61 63/64/62 61/62/60
f 64/65/63 65/66/64 63/64/62
f 66/67/65 67/68/66 65/66/64
f 68/69/67 69/70/68 67/68/66
f 18/20/18 16/18/16 66/67/65
f 70/71/69 71/72/70 69/70/68
f 72/73/71 9/13/11 71/72/70
f 67/68/66 69/70/68 15/17/15
f 5/1/1 7/3/3 2/74/8
f 3/75/6 7/4/3 1/76/2
f 7/4/3 4/6/5 2/10/8
f 8/5/4 7/4/3 3/75/6
f 8/5/4 6/8/7 4/77/5
f 1/76/2 6/9/7 3/75/6
f 6/9/7 2/10/8 4/6/5
f 5/1/1 6/9/7 1/76/2
f 10/11/9 12/14/12 11/12/10
f 12/14/12 14/16/14 13/15/13
f 14/16/14 16/18/16 15/17/15
f 16/18/16 18/20/18 17/19/17
f 18/20/18 20/22/20 19/21/19
f 20/22/20 22/24/22 21/23/21
f 22/24/22 24/26/24 23/25/23
f 24/26/24 26/78/72 25/27/25
f 25/27/25 26/78/72 28/28/26
f 27/29/27 28/28/26 30/30/28
f 29/31/29 30/30/28 32/32/30
f 31/33/31 32/32/30 34/34/32
f 33/35/33 34/34/32 36/36/34
f 35/37/35 36/36/34 38/38/36
f 37/39/37 38/38/36 40/40/38
f 39/41/39 40/40/38 42/42/40
f 41/43/41 42/42/40 44/44/42
f 43/45/43 44/44/42 46/46/44
f 45/47/45 46/46/44 48/48/46
f 47/49/47 48/48/46 50/50/48
f 49/51/49 50/50/48 52/52/50
f 51/53/51 52/52/50 54/54/52
f 53/55/53 54/54/52 56/56/54
f 55/57/55 56/56/54 58/58/56
f 58/58/56 60/61/59 59/60/58
f 60/61/59 62/63/61 61/62/60
f 62/63/61 64/65/63 63/64/62
f 64/65/63 66/67/65 65/66/64
f 66/67/65 68/69/67 67/68/66
f 68/69/67 70/71/69 69/70/68
f 14/16/14 12/14/12 72/73/71
f 12/14/12 10/11/9 72/73/71
f 72/73/71 70/71/69 14/16/14
f 70/71/69 68/69/67 14/16/14
f 68/69/67 66/67/65 16/18/16
f 14/16/14 68/69/67 16/18/16
f 66/67/65 64/65/63 18/20/18
f 64/65/63 62/63/61 20/22/20
f 18/20/18 64/65/63 20/22/20
f 62/63/61 60/61/59 24/26/24
f 60/61/59 58/58/56 26/78/72
f 58/58/56 56/56/54 28/28/26
f 56/56/54 54/54/52 30/30/28
f 54/54/52 52/52/50 30/30/28
f 52/52/50 50/50/48 32/32/30
f 30/30/28 52/52/50 32/32/30
f 50/50/48 48/48/46 34/34/32
f 48/48/46 46/46/44 36/36/34
f 34/34/32 48/48/46 36/36/34
f 46/46/44 44/44/42 40/40/38
f 44/44/42 42/42/40 40/40/38
f 40/40/38 38/38/36 46/46/44
f 38/38/36 36/36/34 46/46/44
f 34/34/32 32/32/30 50/50/48
f 30/30/28 28/28/26 56/56/54
f 28/28/26 26/78/72 58/58/56
f 26/78/72 24/26/24 60/61/59
f 24/26/24 22/24/22 62/63/61
f 22/24/22 20/22/20 62/63/61
f 70/71/69 72/73/71 71/72/70
f 72/73/71 10/11/9 9/13/11
f 71/72/70 9/13/11 11/12/10
f 11/12/10 13/15/13 71/72/70
f 13/15/13 15/17/15 69/70/68
f 71/72/70 13/15/13 69/70/68
f 15/17/15 17/19/17 65/66/64
f 17/19/17 19/21/19 63/64/62
f 19/21/19 21/23/21 63/64/62
f 21/23/21 23/25/23 61/62/60
f 63/64/62 21/23/21 61/62/60
f 23/25/23 25/27/25 57/59/57
f 25/27/25 27/29/27 55/57/55
f 27/29/27 29/31/29 55/57/55
f 29/31/29 31/33/31 53/55/53
f 55/57/55 29/31/29 53/55/53
f 31/33/31 33/35/33 49/51/49
f 33/35/33 35/37/35 47/49/47
f 35/37/35 37/39/37 47/49/47
f 37/39/37 39/41/39 45/47/45
f 47/49/47 37/39/37 45/47/45
f 39/41/39 41/43/41 43/45/43
f 43/45/43 45/47/45 39/41/39
f 47/49/47 49/51/49 33/35/33
f 49/51/49 51/53/51 31/33/31
f 51/53/51 53/55/53 31/33/31
f 55/57/55 57/59/57 25/27/25
f 57/59/57 59/60/58 23/25/23
f 59/60/58 61/62/60 23/25/23
f 63/64/62 65/66/64 17/19/17
f 65/66/64 67/68/66 15/17/15
