# Blender v2.90.1 OBJ File: 'TargetDiamond.blend'
# www.blender.org
mtllib TargetDiamond.mtl
o Cube.001_Cube.002
v -1.000000 0.015276 -1.000000
v 0.000000 -1.984724 0.000000
v -1.000000 0.015276 1.000000
v 1.000000 0.015276 -1.000000
v 1.000000 0.015276 1.000000
v -1.000000 0.007254 1.000000
v 0.000000 2.007254 0.000000
v -1.000000 0.007254 -1.000000
v 1.000000 0.007254 1.000000
v 1.000000 0.007254 -1.000000
vt 0.375000 0.000000
vt 0.625000 0.250000
vt 0.375000 0.250000
vt 0.625000 0.500000
vt 0.375000 0.500000
vt 0.625000 0.750000
vt 0.375000 0.750000
vt 0.625000 1.000000
vt 0.375000 1.000000
vt 0.125000 0.750000
vt 0.125000 0.500000
vt 0.375000 0.000000
vt 0.625000 0.250000
vt 0.375000 0.250000
vt 0.625000 0.500000
vt 0.375000 0.500000
vt 0.625000 0.750000
vt 0.375000 0.750000
vt 0.625000 1.000000
vt 0.375000 1.000000
vt 0.125000 0.750000
vt 0.125000 0.500000
vn -0.8944 -0.4472 0.0000
vn 0.0000 -0.4472 0.8944
vn 0.8944 -0.4472 0.0000
vn 0.0000 -0.4472 -0.8944
vn 0.0000 1.0000 -0.0000
vn -0.8944 0.4472 0.0000
vn 0.0000 0.4472 -0.8944
vn 0.8944 0.4472 0.0000
vn 0.0000 0.4472 0.8944
vn 0.0000 -1.0000 -0.0000
usemtl None
s off
f 1/1/1 2/2/1 3/3/1
f 3/3/2 2/4/2 5/5/2
f 5/5/3 2/6/3 4/7/3
f 4/7/4 2/8/4 1/9/4
f 5/5/5 1/10/5 3/11/5
f 6/12/6 7/13/6 8/14/6
f 8/14/7 7/15/7 10/16/7
f 10/16/8 7/17/8 9/18/8
f 9/18/9 7/19/9 6/20/9
f 10/16/10 6/21/10 8/22/10
f 5/5/5 4/7/5 1/10/5
f 10/16/10 9/18/10 6/21/10
